<svg xmlns="http://www.w3.org/2000/svg" xmlns:xlink="http://www.w3.org/1999/xlink" viewBox="0,0,256,256" width="48px" height="48px" fill-rule="nonzero"><defs><linearGradient x1="1" y1="23.5" x2="45.667" y2="23.5" gradientUnits="userSpaceOnUse" id="color-1"><stop offset="0" stop-color="#000000"></stop><stop offset="1" stop-color="#000000"></stop></linearGradient></defs><g fill="none" fill-rule="nonzero" stroke="none" stroke-width="1" stroke-linecap="butt" stroke-linejoin="miter" stroke-miterlimit="10" stroke-dasharray="" stroke-dashoffset="0" font-family="none" font-weight="none" font-size="none" text-anchor="none" style="mix-blend-mode: normal"><g transform="scale(5.33333,5.33333)"><path d="M39,16c-3.388,-2.473 -12.885,-10.409 -12.885,-10.409c-1.055,-0.892 -2.632,-0.76 -3.523,0.294c-0.893,1.054 -0.761,2.631 0.293,3.523l5.426,4.592h-18.811c-1.381,0 -2.5,1.119 -2.5,2.5c0,1.381 1.119,2.5 2.5,2.5h8.787l-16.309,12.517c-1.095,0.841 -1.302,2.41 -0.461,3.505c0.492,0.642 1.234,0.978 1.985,0.978c0.531,0 1.066,-0.168 1.521,-0.517l9.996,-7.672c-0.003,0.116 -0.019,0.227 -0.019,0.343c0,7.817 6.532,13.846 15,13.846c8.468,0 15.667,-6.029 15.667,-13.846c0,-4.879 -2.791,-9.324 -6.667,-12.154z" fill="url(#color-1)"></path><ellipse cx="30.5" cy="27" rx="9.75" ry="9" fill="#ffffff"></ellipse><path d="M30.5,18c5.385,0 9.75,4.029 9.75,9c0,4.971 -4.365,9 -9.75,9c-5.385,0 -9.75,-4.029 -9.75,-9c0,-4.971 4.365,-9 9.75,-9M30.5,17.5c-5.652,0 -10.25,4.262 -10.25,9.5c0,5.238 4.598,9.5 10.25,9.5c5.652,0 10.25,-4.262 10.25,-9.5c0,-5.238 -4.598,-9.5 -10.25,-9.5z" fill="#000000" opacity="0.07"></path><path d="M30.5,17.5c5.652,0 10.25,4.262 10.25,9.5c0,5.238 -4.598,9.5 -10.25,9.5c-5.652,0 -10.25,-4.262 -10.25,-9.5c0,-5.238 4.598,-9.5 10.25,-9.5M30.5,17c-5.928,0 -10.75,4.486 -10.75,10c0,5.514 4.822,10 10.75,10c5.928,0 10.75,-4.486 10.75,-10c0,-5.514 -4.822,-10 -10.75,-10z" fill="#000000" opacity="0.05"></path><ellipse cx="30.5" cy="27" rx="5.5" ry="5" fill="#000000"></ellipse><path d="M30.5,21.5c3.308,0 6,2.467 6,5.5c0,3.033 -2.692,5.5 -6,5.5c-3.308,0 -6,-2.467 -6,-5.5c0,-3.033 2.692,-5.5 6,-5.5M30.5,21c-3.584,0 -6.5,2.692 -6.5,6c0,3.308 2.916,6 6.5,6c3.584,0 6.5,-2.692 6.5,-6c0,-3.308 -2.916,-6 -6.5,-6z" fill="#000000" opacity="0.05"></path><path d="M30.5,22c3.038,0 5.5,2.239 5.5,5c0,2.761 -2.462,5 -5.5,5c-3.038,0 -5.5,-2.239 -5.5,-5c0,-2.761 2.462,-5 5.5,-5M30.5,21.5c-3.308,0 -6,2.467 -6,5.5c0,3.033 2.692,5.5 6,5.5c3.308,0 6,-2.467 6,-5.5c0,-3.033 -2.692,-5.5 -6,-5.5z" fill="#000000" opacity="0.07"></path></g></g></svg>